<?xml version="1.0" standalone="no"?>
<!DOCTYPE svg PUBLIC "-//W3C//DTD SVG 1.1//EN" "http://www.w3.org/Graphics/SVG/1.1/DTD/svg11.dtd">
<svg t="1631363420916" class="icon" viewBox="0 0 1024 1024" version="1.1" xmlns="http://www.w3.org/2000/svg" p-id="2394" xmlns:xlink="http://www.w3.org/1999/xlink" width="200" height="200">
<path d="M827.3 706H662.8c-27.6 0-50-22.4-50-50V497.2c0-27.6 22.4-50 50-50h164.5c53.9 0 97.8 43.9 97.8 97.8v63.1c0.1 54-43.8 97.9-97.8 97.9z m-154.5-60h154.5c20.9 0 37.8-17 37.8-37.8v-63.1c0-20.9-17-37.8-37.8-37.8H672.8V646z" fill="#3eaf7c" p-id="2395"></path>
<path d="M584.7 842.7H387.3c-114.7 0-208.5-93.8-208.5-208.5V399.3c0-11 9-20 20-20h574.4c11 0 20 9 20 20v234.9c0 114.6-93.8 208.5-208.5 208.5zM485.5 313.2c-16.6 0-30-13.4-30-30V133.4c0-16.6 13.4-30 30-30s30 13.4 30 30v149.8c0 16.5-13.5 30-30 30zM325.9 313.2c-16.6 0-30-13.4-30-30v-79.8c0-16.6 13.4-30 30-30s30 13.4 30 30v79.8c0 16.5-13.4 30-30 30zM645 313.2c-16.6 0-30-13.4-30-30v-79.8c0-16.6 13.4-30 30-30s30 13.4 30 30v79.8c0 16.5-13.5 30-30 30z" fill="#3eaf7c" p-id="2396"></path>
<path d="M486 526.3c-25.6-25.6-67.2-25.4-92.5 0.6-24.9 25.6-24 66.7 1.3 92l64.5 64.5c14.8 14.8 38.7 14.8 53.5 0l64.5-64.5c25.3-25.3 26.2-66.4 1.3-92-25.4-26-67-26.2-92.6-0.6z" fill="#FFFFFF" p-id="2397">
</path>
</svg>